<mxfile host="app.diagrams.net" modified="2024-05-16T07:21:11.573Z" agent="Mozilla/5.0 (Windows NT 10.0; Win64; x64) AppleWebKit/537.36 (KHTML, like Gecko) Chrome/122.0.0.0 YaBrowser/24.4.0.0 Safari/537.36" etag="LD5P_YqcBl6S6HKZ_Sb4" version="24.4.2" type="github">
  <diagram name="Page-1" id="e56a1550-8fbb-45ad-956c-1786394a9013">
    <mxGraphModel dx="2415" dy="-217" grid="0" gridSize="10" guides="1" tooltips="1" connect="1" arrows="1" fold="1" page="0" pageScale="1" pageWidth="1100" pageHeight="850" background="none" math="0" shadow="0">
      <root>
        <mxCell id="0" />
        <mxCell id="1" parent="0" />
        <mxCell id="h-be-nQW5oj6uktQYkDy-21" style="edgeStyle=orthogonalEdgeStyle;orthogonalLoop=1;jettySize=auto;html=1;entryX=1;entryY=0.5;entryDx=0;entryDy=0;" edge="1" parent="1" source="h-be-nQW5oj6uktQYkDy-1" target="h-be-nQW5oj6uktQYkDy-20">
          <mxGeometry relative="1" as="geometry" />
        </mxCell>
        <mxCell id="h-be-nQW5oj6uktQYkDy-24" style="edgeStyle=orthogonalEdgeStyle;orthogonalLoop=1;jettySize=auto;html=1;entryX=1;entryY=0.5;entryDx=0;entryDy=0;" edge="1" parent="1" source="h-be-nQW5oj6uktQYkDy-1" target="h-be-nQW5oj6uktQYkDy-23">
          <mxGeometry relative="1" as="geometry" />
        </mxCell>
        <mxCell id="h-be-nQW5oj6uktQYkDy-31" style="edgeStyle=orthogonalEdgeStyle;orthogonalLoop=1;jettySize=auto;html=1;entryX=1;entryY=0.5;entryDx=0;entryDy=0;" edge="1" parent="1" source="h-be-nQW5oj6uktQYkDy-33" target="h-be-nQW5oj6uktQYkDy-7">
          <mxGeometry relative="1" as="geometry" />
        </mxCell>
        <mxCell id="h-be-nQW5oj6uktQYkDy-55" style="edgeStyle=orthogonalEdgeStyle;orthogonalLoop=1;jettySize=auto;html=1;entryX=0;entryY=0.5;entryDx=0;entryDy=0;" edge="1" parent="1" source="h-be-nQW5oj6uktQYkDy-1" target="h-be-nQW5oj6uktQYkDy-54">
          <mxGeometry relative="1" as="geometry" />
        </mxCell>
        <mxCell id="h-be-nQW5oj6uktQYkDy-67" style="edgeStyle=orthogonalEdgeStyle;orthogonalLoop=1;jettySize=auto;html=1;entryX=1;entryY=0.5;entryDx=0;entryDy=0;" edge="1" parent="1" source="h-be-nQW5oj6uktQYkDy-1" target="h-be-nQW5oj6uktQYkDy-66">
          <mxGeometry relative="1" as="geometry" />
        </mxCell>
        <mxCell id="h-be-nQW5oj6uktQYkDy-74" style="edgeStyle=orthogonalEdgeStyle;orthogonalLoop=1;jettySize=auto;html=1;entryX=0.5;entryY=1;entryDx=0;entryDy=0;" edge="1" parent="1" source="h-be-nQW5oj6uktQYkDy-1">
          <mxGeometry relative="1" as="geometry">
            <mxPoint x="-116.00000000000045" y="2072" as="targetPoint" />
          </mxGeometry>
        </mxCell>
        <mxCell id="h-be-nQW5oj6uktQYkDy-76" style="edgeStyle=orthogonalEdgeStyle;orthogonalLoop=1;jettySize=auto;html=1;entryX=1;entryY=0.5;entryDx=0;entryDy=0;" edge="1" parent="1" source="h-be-nQW5oj6uktQYkDy-1" target="h-be-nQW5oj6uktQYkDy-77">
          <mxGeometry relative="1" as="geometry">
            <Array as="points">
              <mxPoint x="-116" y="2138" />
              <mxPoint x="395" y="2138" />
              <mxPoint x="395" y="1346" />
              <mxPoint x="-112" y="1346" />
            </Array>
          </mxGeometry>
        </mxCell>
        <mxCell id="h-be-nQW5oj6uktQYkDy-1" value="Пользователь" style="rounded=0;whiteSpace=wrap;html=1;" vertex="1" parent="1">
          <mxGeometry x="-176" y="2179" width="120" height="60" as="geometry" />
        </mxCell>
        <mxCell id="h-be-nQW5oj6uktQYkDy-2" value="Роль" style="rounded=0;whiteSpace=wrap;html=1;" vertex="1" parent="1">
          <mxGeometry x="-526" y="2086" width="120" height="60" as="geometry" />
        </mxCell>
        <mxCell id="h-be-nQW5oj6uktQYkDy-4" value="Токен" style="rounded=0;whiteSpace=wrap;html=1;" vertex="1" parent="1">
          <mxGeometry x="-526" y="2179" width="120" height="60" as="geometry" />
        </mxCell>
        <mxCell id="h-be-nQW5oj6uktQYkDy-52" style="edgeStyle=orthogonalEdgeStyle;orthogonalLoop=1;jettySize=auto;html=1;entryX=1;entryY=0.5;entryDx=0;entryDy=0;" edge="1" parent="1" source="h-be-nQW5oj6uktQYkDy-5" target="h-be-nQW5oj6uktQYkDy-51">
          <mxGeometry relative="1" as="geometry" />
        </mxCell>
        <mxCell id="h-be-nQW5oj6uktQYkDy-5" value="Фирма" style="rounded=0;whiteSpace=wrap;html=1;" vertex="1" parent="1">
          <mxGeometry x="-276" y="1460" width="120" height="60" as="geometry" />
        </mxCell>
        <mxCell id="h-be-nQW5oj6uktQYkDy-58" style="edgeStyle=orthogonalEdgeStyle;orthogonalLoop=1;jettySize=auto;html=1;entryX=0;entryY=0.5;entryDx=0;entryDy=0;" edge="1" parent="1" source="h-be-nQW5oj6uktQYkDy-6" target="h-be-nQW5oj6uktQYkDy-57">
          <mxGeometry relative="1" as="geometry" />
        </mxCell>
        <mxCell id="h-be-nQW5oj6uktQYkDy-71" style="edgeStyle=orthogonalEdgeStyle;orthogonalLoop=1;jettySize=auto;html=1;entryX=0;entryY=0.5;entryDx=0;entryDy=0;" edge="1" parent="1" source="h-be-nQW5oj6uktQYkDy-6" target="h-be-nQW5oj6uktQYkDy-70">
          <mxGeometry relative="1" as="geometry">
            <Array as="points">
              <mxPoint x="-589" y="1805" />
              <mxPoint x="-589" y="1897" />
            </Array>
          </mxGeometry>
        </mxCell>
        <mxCell id="h-be-nQW5oj6uktQYkDy-6" value="Проект" style="rounded=0;whiteSpace=wrap;html=1;" vertex="1" parent="1">
          <mxGeometry x="-324" y="1775" width="120" height="60" as="geometry" />
        </mxCell>
        <mxCell id="h-be-nQW5oj6uktQYkDy-7" value="Маршрут" style="rounded=0;whiteSpace=wrap;html=1;" vertex="1" parent="1">
          <mxGeometry x="-526" y="2283" width="120" height="60" as="geometry" />
        </mxCell>
        <mxCell id="h-be-nQW5oj6uktQYkDy-8" value="Сессия" style="rounded=0;whiteSpace=wrap;html=1;" vertex="1" parent="1">
          <mxGeometry x="-324" y="1692" width="120" height="60" as="geometry" />
        </mxCell>
        <mxCell id="h-be-nQW5oj6uktQYkDy-49" style="edgeStyle=orthogonalEdgeStyle;orthogonalLoop=1;jettySize=auto;html=1;entryX=0.5;entryY=1;entryDx=0;entryDy=0;" edge="1" parent="1" source="h-be-nQW5oj6uktQYkDy-9" target="h-be-nQW5oj6uktQYkDy-48">
          <mxGeometry relative="1" as="geometry" />
        </mxCell>
        <mxCell id="h-be-nQW5oj6uktQYkDy-9" value="Доска" style="rounded=0;whiteSpace=wrap;html=1;" vertex="1" parent="1">
          <mxGeometry x="-105" y="1575" width="120" height="60" as="geometry" />
        </mxCell>
        <mxCell id="h-be-nQW5oj6uktQYkDy-46" style="edgeStyle=orthogonalEdgeStyle;orthogonalLoop=1;jettySize=auto;html=1;entryX=0.5;entryY=1;entryDx=0;entryDy=0;" edge="1" parent="1" source="h-be-nQW5oj6uktQYkDy-10" target="h-be-nQW5oj6uktQYkDy-45">
          <mxGeometry relative="1" as="geometry" />
        </mxCell>
        <mxCell id="h-be-nQW5oj6uktQYkDy-10" value="Лист" style="rounded=0;whiteSpace=wrap;html=1;" vertex="1" parent="1">
          <mxGeometry x="-105" y="1689" width="120" height="60" as="geometry" />
        </mxCell>
        <mxCell id="h-be-nQW5oj6uktQYkDy-62" style="edgeStyle=orthogonalEdgeStyle;orthogonalLoop=1;jettySize=auto;html=1;entryX=0;entryY=0.5;entryDx=0;entryDy=0;" edge="1" parent="1" source="h-be-nQW5oj6uktQYkDy-11" target="h-be-nQW5oj6uktQYkDy-35">
          <mxGeometry relative="1" as="geometry" />
        </mxCell>
        <mxCell id="h-be-nQW5oj6uktQYkDy-63" style="edgeStyle=orthogonalEdgeStyle;orthogonalLoop=1;jettySize=auto;html=1;" edge="1" parent="1" source="h-be-nQW5oj6uktQYkDy-11" target="h-be-nQW5oj6uktQYkDy-38">
          <mxGeometry relative="1" as="geometry" />
        </mxCell>
        <mxCell id="h-be-nQW5oj6uktQYkDy-64" style="edgeStyle=orthogonalEdgeStyle;orthogonalLoop=1;jettySize=auto;html=1;entryX=1;entryY=0.5;entryDx=0;entryDy=0;exitX=1;exitY=0.5;exitDx=0;exitDy=0;" edge="1" parent="1" source="h-be-nQW5oj6uktQYkDy-11" target="h-be-nQW5oj6uktQYkDy-42">
          <mxGeometry relative="1" as="geometry" />
        </mxCell>
        <mxCell id="h-be-nQW5oj6uktQYkDy-11" value="Задача" style="rounded=0;whiteSpace=wrap;html=1;" vertex="1" parent="1">
          <mxGeometry x="-92" y="1886" width="120" height="60" as="geometry" />
        </mxCell>
        <mxCell id="h-be-nQW5oj6uktQYkDy-12" value="Вложение" style="rounded=0;whiteSpace=wrap;html=1;" vertex="1" parent="1">
          <mxGeometry x="244" y="1831" width="120" height="60" as="geometry" />
        </mxCell>
        <mxCell id="h-be-nQW5oj6uktQYkDy-13" value="Приоритет" style="rounded=0;whiteSpace=wrap;html=1;" vertex="1" parent="1">
          <mxGeometry x="244" y="1937" width="120" height="60" as="geometry" />
        </mxCell>
        <mxCell id="h-be-nQW5oj6uktQYkDy-22" style="edgeStyle=orthogonalEdgeStyle;orthogonalLoop=1;jettySize=auto;html=1;exitX=0;exitY=0.5;exitDx=0;exitDy=0;entryX=1;entryY=0.5;entryDx=0;entryDy=0;" edge="1" parent="1" source="h-be-nQW5oj6uktQYkDy-20" target="h-be-nQW5oj6uktQYkDy-2">
          <mxGeometry relative="1" as="geometry" />
        </mxCell>
        <mxCell id="h-be-nQW5oj6uktQYkDy-20" value="Имеет" style="rhombus;whiteSpace=wrap;html=1;" vertex="1" parent="1">
          <mxGeometry x="-326" y="2076" width="80" height="80" as="geometry" />
        </mxCell>
        <mxCell id="h-be-nQW5oj6uktQYkDy-25" style="edgeStyle=orthogonalEdgeStyle;orthogonalLoop=1;jettySize=auto;html=1;exitX=0;exitY=0.5;exitDx=0;exitDy=0;entryX=1;entryY=0.5;entryDx=0;entryDy=0;" edge="1" parent="1" source="h-be-nQW5oj6uktQYkDy-23" target="h-be-nQW5oj6uktQYkDy-4">
          <mxGeometry relative="1" as="geometry" />
        </mxCell>
        <mxCell id="h-be-nQW5oj6uktQYkDy-23" value="Имеет" style="rhombus;whiteSpace=wrap;html=1;" vertex="1" parent="1">
          <mxGeometry x="-326" y="2169" width="80" height="80" as="geometry" />
        </mxCell>
        <mxCell id="h-be-nQW5oj6uktQYkDy-29" style="edgeStyle=orthogonalEdgeStyle;orthogonalLoop=1;jettySize=auto;html=1;entryX=0;entryY=0.5;entryDx=0;entryDy=0;" edge="1" parent="1" source="h-be-nQW5oj6uktQYkDy-26" target="h-be-nQW5oj6uktQYkDy-28">
          <mxGeometry relative="1" as="geometry" />
        </mxCell>
        <mxCell id="h-be-nQW5oj6uktQYkDy-26" value="Событие" style="rounded=0;whiteSpace=wrap;html=1;" vertex="1" parent="1">
          <mxGeometry x="120" y="2179" width="120" height="60" as="geometry" />
        </mxCell>
        <mxCell id="h-be-nQW5oj6uktQYkDy-27" value="Тип события" style="rounded=0;whiteSpace=wrap;html=1;" vertex="1" parent="1">
          <mxGeometry x="431" y="2179" width="120" height="60" as="geometry" />
        </mxCell>
        <mxCell id="h-be-nQW5oj6uktQYkDy-30" style="edgeStyle=orthogonalEdgeStyle;orthogonalLoop=1;jettySize=auto;html=1;entryX=0;entryY=0.5;entryDx=0;entryDy=0;" edge="1" parent="1" source="h-be-nQW5oj6uktQYkDy-28" target="h-be-nQW5oj6uktQYkDy-27">
          <mxGeometry relative="1" as="geometry" />
        </mxCell>
        <mxCell id="h-be-nQW5oj6uktQYkDy-28" value="Бывает" style="rhombus;whiteSpace=wrap;html=1;" vertex="1" parent="1">
          <mxGeometry x="283" y="2169" width="80" height="80" as="geometry" />
        </mxCell>
        <mxCell id="h-be-nQW5oj6uktQYkDy-34" value="" style="edgeStyle=orthogonalEdgeStyle;orthogonalLoop=1;jettySize=auto;html=1;entryX=1;entryY=0.5;entryDx=0;entryDy=0;" edge="1" parent="1" source="h-be-nQW5oj6uktQYkDy-1" target="h-be-nQW5oj6uktQYkDy-33">
          <mxGeometry relative="1" as="geometry">
            <mxPoint x="-144" y="2239" as="sourcePoint" />
            <mxPoint x="-144" y="2367" as="targetPoint" />
          </mxGeometry>
        </mxCell>
        <mxCell id="h-be-nQW5oj6uktQYkDy-33" value="Имеет" style="rhombus;whiteSpace=wrap;html=1;" vertex="1" parent="1">
          <mxGeometry x="-326" y="2273" width="80" height="80" as="geometry" />
        </mxCell>
        <mxCell id="h-be-nQW5oj6uktQYkDy-60" style="edgeStyle=orthogonalEdgeStyle;orthogonalLoop=1;jettySize=auto;html=1;entryX=0;entryY=0.5;entryDx=0;entryDy=0;" edge="1" parent="1" source="h-be-nQW5oj6uktQYkDy-35" target="h-be-nQW5oj6uktQYkDy-12">
          <mxGeometry relative="1" as="geometry" />
        </mxCell>
        <mxCell id="h-be-nQW5oj6uktQYkDy-35" value="Имеет" style="rhombus;whiteSpace=wrap;html=1;" vertex="1" parent="1">
          <mxGeometry x="133" y="1821" width="80" height="80" as="geometry" />
        </mxCell>
        <mxCell id="h-be-nQW5oj6uktQYkDy-61" style="edgeStyle=orthogonalEdgeStyle;orthogonalLoop=1;jettySize=auto;html=1;" edge="1" parent="1" source="h-be-nQW5oj6uktQYkDy-38" target="h-be-nQW5oj6uktQYkDy-13">
          <mxGeometry relative="1" as="geometry" />
        </mxCell>
        <mxCell id="h-be-nQW5oj6uktQYkDy-38" value="Имеет" style="rhombus;whiteSpace=wrap;html=1;" vertex="1" parent="1">
          <mxGeometry x="133" y="1927" width="80" height="80" as="geometry" />
        </mxCell>
        <mxCell id="h-be-nQW5oj6uktQYkDy-44" style="edgeStyle=orthogonalEdgeStyle;orthogonalLoop=1;jettySize=auto;html=1;entryX=0;entryY=0.5;entryDx=0;entryDy=0;exitX=0;exitY=0.5;exitDx=0;exitDy=0;" edge="1" parent="1" source="h-be-nQW5oj6uktQYkDy-42" target="h-be-nQW5oj6uktQYkDy-10">
          <mxGeometry relative="1" as="geometry">
            <Array as="points">
              <mxPoint x="-125" y="1822" />
              <mxPoint x="-125" y="1719" />
            </Array>
          </mxGeometry>
        </mxCell>
        <mxCell id="h-be-nQW5oj6uktQYkDy-42" value="Находится на" style="rhombus;whiteSpace=wrap;html=1;" vertex="1" parent="1">
          <mxGeometry x="-92" y="1782" width="80" height="80" as="geometry" />
        </mxCell>
        <mxCell id="h-be-nQW5oj6uktQYkDy-47" style="edgeStyle=orthogonalEdgeStyle;orthogonalLoop=1;jettySize=auto;html=1;entryX=0;entryY=0.5;entryDx=0;entryDy=0;" edge="1" parent="1" source="h-be-nQW5oj6uktQYkDy-45" target="h-be-nQW5oj6uktQYkDy-9">
          <mxGeometry relative="1" as="geometry" />
        </mxCell>
        <mxCell id="h-be-nQW5oj6uktQYkDy-45" value="Находится на" style="rhombus;whiteSpace=wrap;html=1;" vertex="1" parent="1">
          <mxGeometry x="111" y="1617" width="80" height="80" as="geometry" />
        </mxCell>
        <mxCell id="h-be-nQW5oj6uktQYkDy-50" style="edgeStyle=orthogonalEdgeStyle;orthogonalLoop=1;jettySize=auto;html=1;entryX=1;entryY=0.5;entryDx=0;entryDy=0;" edge="1" parent="1" source="h-be-nQW5oj6uktQYkDy-48" target="h-be-nQW5oj6uktQYkDy-5">
          <mxGeometry relative="1" as="geometry" />
        </mxCell>
        <mxCell id="h-be-nQW5oj6uktQYkDy-48" value="Принадлежит" style="rhombus;whiteSpace=wrap;html=1;" vertex="1" parent="1">
          <mxGeometry x="-85" y="1450" width="80" height="80" as="geometry" />
        </mxCell>
        <mxCell id="h-be-nQW5oj6uktQYkDy-53" style="edgeStyle=orthogonalEdgeStyle;orthogonalLoop=1;jettySize=auto;html=1;entryX=0;entryY=0.5;entryDx=0;entryDy=0;exitX=0;exitY=0.5;exitDx=0;exitDy=0;" edge="1" parent="1" source="h-be-nQW5oj6uktQYkDy-51" target="h-be-nQW5oj6uktQYkDy-8">
          <mxGeometry relative="1" as="geometry" />
        </mxCell>
        <mxCell id="h-be-nQW5oj6uktQYkDy-51" value="Принадлежит" style="rhombus;whiteSpace=wrap;html=1;" vertex="1" parent="1">
          <mxGeometry x="-424" y="1450" width="80" height="80" as="geometry" />
        </mxCell>
        <mxCell id="h-be-nQW5oj6uktQYkDy-56" style="edgeStyle=orthogonalEdgeStyle;orthogonalLoop=1;jettySize=auto;html=1;exitX=1;exitY=0.5;exitDx=0;exitDy=0;entryX=0;entryY=0.5;entryDx=0;entryDy=0;" edge="1" parent="1" source="h-be-nQW5oj6uktQYkDy-54" target="h-be-nQW5oj6uktQYkDy-26">
          <mxGeometry relative="1" as="geometry" />
        </mxCell>
        <mxCell id="h-be-nQW5oj6uktQYkDy-54" value="Создает" style="rhombus;whiteSpace=wrap;html=1;" vertex="1" parent="1">
          <mxGeometry x="-7" y="2169" width="80" height="80" as="geometry" />
        </mxCell>
        <mxCell id="h-be-nQW5oj6uktQYkDy-59" style="edgeStyle=orthogonalEdgeStyle;orthogonalLoop=1;jettySize=auto;html=1;exitX=1;exitY=0.5;exitDx=0;exitDy=0;entryX=0;entryY=0.5;entryDx=0;entryDy=0;" edge="1" parent="1" source="h-be-nQW5oj6uktQYkDy-57" target="h-be-nQW5oj6uktQYkDy-8">
          <mxGeometry relative="1" as="geometry" />
        </mxCell>
        <mxCell id="h-be-nQW5oj6uktQYkDy-57" value="Может быть" style="rhombus;whiteSpace=wrap;html=1;" vertex="1" parent="1">
          <mxGeometry x="-571" y="1682" width="80" height="80" as="geometry" />
        </mxCell>
        <mxCell id="h-be-nQW5oj6uktQYkDy-65" value="Профиль" style="rounded=0;whiteSpace=wrap;html=1;" vertex="1" parent="1">
          <mxGeometry x="-526" y="2391" width="120" height="60" as="geometry" />
        </mxCell>
        <mxCell id="h-be-nQW5oj6uktQYkDy-68" style="edgeStyle=orthogonalEdgeStyle;orthogonalLoop=1;jettySize=auto;html=1;entryX=1;entryY=0.5;entryDx=0;entryDy=0;" edge="1" parent="1" source="h-be-nQW5oj6uktQYkDy-66" target="h-be-nQW5oj6uktQYkDy-65">
          <mxGeometry relative="1" as="geometry" />
        </mxCell>
        <mxCell id="h-be-nQW5oj6uktQYkDy-66" value="Имеет" style="rhombus;whiteSpace=wrap;html=1;" vertex="1" parent="1">
          <mxGeometry x="-326" y="2381" width="80" height="80" as="geometry" />
        </mxCell>
        <mxCell id="h-be-nQW5oj6uktQYkDy-69" value="Направление" style="rounded=0;whiteSpace=wrap;html=1;" vertex="1" parent="1">
          <mxGeometry x="-324" y="1867" width="120" height="60" as="geometry" />
        </mxCell>
        <mxCell id="h-be-nQW5oj6uktQYkDy-72" style="edgeStyle=orthogonalEdgeStyle;orthogonalLoop=1;jettySize=auto;html=1;entryX=0;entryY=0.5;entryDx=0;entryDy=0;" edge="1" parent="1" source="h-be-nQW5oj6uktQYkDy-70" target="h-be-nQW5oj6uktQYkDy-69">
          <mxGeometry relative="1" as="geometry" />
        </mxCell>
        <mxCell id="h-be-nQW5oj6uktQYkDy-70" value="Имеет" style="rhombus;whiteSpace=wrap;html=1;" vertex="1" parent="1">
          <mxGeometry x="-453" y="1857" width="80" height="80" as="geometry" />
        </mxCell>
        <mxCell id="h-be-nQW5oj6uktQYkDy-75" style="edgeStyle=orthogonalEdgeStyle;orthogonalLoop=1;jettySize=auto;html=1;entryX=0;entryY=0.5;entryDx=0;entryDy=0;" edge="1" parent="1" source="h-be-nQW5oj6uktQYkDy-73" target="h-be-nQW5oj6uktQYkDy-11">
          <mxGeometry relative="1" as="geometry" />
        </mxCell>
        <mxCell id="h-be-nQW5oj6uktQYkDy-73" value="Исполняет" style="rhombus;whiteSpace=wrap;html=1;" vertex="1" parent="1">
          <mxGeometry x="-156" y="2029" width="80" height="80" as="geometry" />
        </mxCell>
        <mxCell id="h-be-nQW5oj6uktQYkDy-78" style="edgeStyle=orthogonalEdgeStyle;orthogonalLoop=1;jettySize=auto;html=1;exitX=0;exitY=0.5;exitDx=0;exitDy=0;entryX=0.5;entryY=0;entryDx=0;entryDy=0;" edge="1" parent="1" source="h-be-nQW5oj6uktQYkDy-77" target="h-be-nQW5oj6uktQYkDy-5">
          <mxGeometry relative="1" as="geometry" />
        </mxCell>
        <mxCell id="h-be-nQW5oj6uktQYkDy-77" value="Может быть" style="rhombus;whiteSpace=wrap;html=1;" vertex="1" parent="1">
          <mxGeometry x="-192" y="1307" width="80" height="80" as="geometry" />
        </mxCell>
      </root>
    </mxGraphModel>
  </diagram>
</mxfile>
